<?xml version="1.0" standalone="no"?>
<!DOCTYPE svg PUBLIC "-//W3C//DTD SVG 20010904//EN"
 "http://www.w3.org/TR/2001/REC-SVG-20010904/DTD/svg10.dtd">
<svg version="1.0" xmlns="http://www.w3.org/2000/svg"
 width="48.000000pt" height="48.000000pt" viewBox="0 0 48.000000 48.000000"
 preserveAspectRatio="xMidYMid meet">

<g transform="translate(0.000000,48.000000) scale(0.100000,-0.100000)"
fill="#000000" stroke="none">
<path d="M230 466 c0 -8 -19 -18 -45 -25 -61 -15 -121 -75 -136 -136 -7 -26
-17 -45 -25 -45 -8 0 -14 -4 -14 -10 0 -5 6 -10 14 -10 8 0 16 -16 20 -42 13
-81 64 -136 151 -162 105 -32 222 47 241 162 4 26 12 42 20 42 8 0 14 5 14 10
0 6 -6 10 -14 10 -8 0 -18 19 -25 45 -15 61 -75 121 -136 136 -26 7 -45 17
-45 25 0 8 -4 14 -10 14 -5 0 -10 -6 -10 -14z m0 -51 c0 -8 5 -15 10 -15 6 0
10 7 10 15 0 19 11 19 57 0 50 -21 72 -42 94 -90 23 -49 24 -65 4 -65 -8 0
-15 -4 -15 -10 0 -5 7 -10 15 -10 20 0 19 -16 -4 -65 -22 -48 -44 -69 -94 -90
-46 -19 -57 -19 -57 0 0 8 -4 15 -10 15 -5 0 -10 -7 -10 -15 0 -19 -11 -19
-57 0 -50 21 -72 42 -94 90 -23 49 -24 65 -4 65 8 0 15 5 15 10 0 6 -7 10 -15
10 -19 0 -19 11 0 57 21 50 42 72 90 94 49 23 65 24 65 4z"/>
<path d="M206 284 c-31 -30 -9 -84 34 -84 24 0 50 26 50 50 0 24 -26 50 -50
50 -10 0 -26 -7 -34 -16z m59 -34 c0 -18 -6 -26 -23 -28 -13 -2 -25 3 -28 12
-10 26 4 48 28 44 17 -2 23 -10 23 -28z"/>
</g>
</svg>
